<?xml version="1.0" encoding="UTF-8" standalone="no"?>
<!-- Created with Inkscape (http://www.inkscape.org/) -->

<svg
   width="2.5in"
   height="3.5in"
   viewBox="0 0 63.500001 88.9"
   version="1.1"
   id="svg1"
   xml:space="preserve"
   xmlns="http://www.w3.org/2000/svg">
   <defs
     id="defs1" /><g
     id="layer1"><rect
       style="opacity:1;fill:none;stroke:#6f6f6f;stroke-width:2.065;stroke-linejoin:round;stroke-dasharray:none;stroke-opacity:1"
       id="rect12"
       width="61.432678"
       height="86.835548"
       x="1.0338306"
       y="1.0327253"
       ry="6.1214399" /><g
       style="fill:#707070;fill-opacity:1;stroke:#707070;stroke-opacity:1"
       id="g1"
       transform="matrix(0.08334231,0,0,0.08334231,10.414984,23.124869)"><path
         d="m 86.76,255 a 9.89,9.89 0 0 0 4.87,-1.29 9.82,9.82 0 0 0 3.65,-13.43 c -16.46,-28.56 -17.81,-52.12 -7.45,-70 14.26,-24.57 53.61,-33.65 105.27,-24.29 a 9.86,9.86 0 0 0 11.45,-7.9 9.84,9.84 0 0 0 -7.93,-11.44 c -29.19,-5.28 -56,-5.18 -77.39,0.3 -22.3,5.71 -39,17.28 -48.45,33.48 -14,24.19 -12.7,54.73 7.42,89.62 a 9.85,9.85 0 0 0 8.56,4.95 z"
         id="path1"
         style="fill:#707070;fill-opacity:1;stroke:#707070;stroke-opacity:1" /><path
         d="m 361.61,143.73 c 32.24,0.42 52.61,9.31 62.79,26.86 14.21,24.48 2.52,62.81 -31.27,102.52 a 9.82,9.82 0 0 0 7.51,16.18 9.88,9.88 0 0 0 7.52,-3.46 c 19.12,-22.47 32.35,-45.54 38.25,-66.71 6.14,-22 4.43,-42.21 -5,-58.38 -13.8,-23.78 -40.13,-36.15 -79.59,-36.67 h -0.14 a 9.8301831,9.8301831 0 0 0 -0.12,19.66 z"
         id="path2"
         style="fill:#707070;fill-opacity:1;stroke:#707070;stroke-opacity:1" /><path
         d="m 326.47,414.89 a 9.88,9.88 0 0 0 -13.5,3.35 c -16.41,27.15 -36.57,42.1 -56.77,42.1 -28.49,0 -56,-29.31 -73.73,-78.42 a 9.87,9.87 0 0 0 -12.59,-5.92 9.83,9.83 0 0 0 -6,12.58 c 10,27.77 23.47,50.75 39,66.46 16.11,16.34 34.55,25 53.32,25 27.38,0 53.54,-18.33 73.65,-51.61 a 9.81,9.81 0 0 0 -3.38,-13.5 z"
         id="path3"
         style="fill:#707070;fill-opacity:1;stroke:#707070;stroke-opacity:1" /><path
         d="m 431.7,338.54 a 32.14,32.14 0 0 0 -29.9,44.33 c -41.8,19.5 -119.8,4.79 -191.87,-36.62 -32.91,-18.9 -62.16,-41.86 -84.6,-66.39 a 9.9,9.9 0 0 0 -13.91,-0.65 9.8,9.8 0 0 0 -0.65,13.9 c 23.79,26 54.68,50.28 89.33,70.18 40.28,23.13 82.27,38.63 121.43,44.81 a 225.54,225.54 0 0 0 35,2.91 c 23.12,0 43,-4.3 58.51,-12.79 a 32.2,32.2 0 1 0 16.7,-59.68 z m 0,44.66 a 12.6,12.6 0 0 1 -7.82,-2.72 10,10 0 0 0 -2.2,-2.21 12.61,12.61 0 1 1 10,4.93 z"
         id="path4"
         style="fill:#707070;fill-opacity:1;stroke:#707070;stroke-opacity:1" /><path
         d="m 82.09,338.59 c 0.57,-21.26 12.41,-47 33.68,-73.16 23.19,-28.45 56.69,-56 94.34,-77.65 33.25,-19.1 65.2,-31.9 98.07,-38.91 a 9.83,9.83 0 1 0 -4.12,-19.22 c -34.85,7.43 -68.78,21 -103.79,41.09 C 116.09,219.09 59.9,289.88 62.46,343.9 a 32.32,32.32 0 1 0 19.63,-5.31 z M 80.3,383.2 A 12.5,12.5 0 1 1 92.89,370.7 12.56,12.56 0 0 1 80.3,383.2 Z"
         id="path5"
         style="fill:#707070;fill-opacity:1;stroke:#707070;stroke-opacity:1" /><path
         d="m 256.2,96.32 a 32.23,32.23 0 0 0 26.53,-13.81 c 17.89,11.69 34,35 45.81,66.12 13,34.39 19.84,75.38 19.84,118.54 0,37.18 -5.19,72.35 -15,103.6 a 9.72,9.72 0 0 0 0.66,7.49 9.82,9.82 0 0 0 5.8,4.84 9.89,9.89 0 0 0 12.34,-6.44 c 10.42,-33.14 15.93,-70.34 15.93,-109.49 0,-47.17 -7.77,-91.77 -22.47,-129 -14.41,-36.48 -34.13,-62.4 -57.14,-75.16 a 32.3,32.3 0 1 0 -32.3,33.31 z m 0,-44.66 a 12.5,12.5 0 1 1 -12.59,12.5 12.56,12.56 0 0 1 12.59,-12.5 z"
         id="path6"
         style="fill:#707070;fill-opacity:1;stroke:#707070;stroke-opacity:1" /><path
         d="m 251,243.36 v 0 a 24.35,24.35 0 0 0 5.16,48.16 24.68,24.68 0 0 0 5.16,-0.55 A 24.36,24.36 0 1 0 251,243.36 Z"
         id="path7"
         style="fill:#707070;fill-opacity:1;stroke:#707070;stroke-opacity:1" /></g></g></svg>
